<svg width="40" height="44" viewBox="0 0 40 44" fill="none" xmlns="http://www.w3.org/2000/svg">
<path d="M0 13C0 7.47716 4.47715 3 10 3H30C35.5228 3 40 7.47715 40 13V33.6154C40 39.1382 35.5228 43.6154 30 43.6154H10C4.47715 43.6154 0 39.1382 0 33.6154V13Z" fill="white"/>
<path d="M0 13C0 7.47716 4.47715 3 10 3H30C35.5228 3 40 7.47715 40 13V15H0V13Z" fill="#16BDCA"/>
<path d="M14.6667 7.89744C14.6667 9.76671 13.1743 11.2821 11.3333 11.2821C9.49238 11.2821 8 9.76671 8 7.89744C8 6.02816 9.49238 4.51282 11.3333 4.51282C13.1743 4.51282 14.6667 6.02816 14.6667 7.89744Z" fill="#036672"/>
<path d="M9.11112 2.22222C9.11112 0.994923 10.106 0 11.3333 0C12.5606 0 13.5556 0.994923 13.5556 2.22222V7.93162C13.5556 9.15892 12.5606 10.1538 11.3333 10.1538C10.106 10.1538 9.11112 9.15892 9.11112 7.93162V2.22222Z" fill="white"/>
<path d="M31.3333 7.89744C31.3333 9.76671 29.841 11.2821 28 11.2821C26.1591 11.2821 24.6667 9.76671 24.6667 7.89744C24.6667 6.02816 26.1591 4.51282 28 4.51282C29.841 4.51282 31.3333 6.02816 31.3333 7.89744Z" fill="#036672"/>
<path d="M25.7778 2.22222C25.7778 0.994923 26.7727 0 28 0C29.2273 0 30.2222 0.994923 30.2222 2.22222V7.93162C30.2222 9.15892 29.2273 10.1538 28 10.1538C26.7727 10.1538 25.7778 9.15892 25.7778 7.93162V2.22222Z" fill="white"/>
<path d="M22.6506 18.5455V36H19.4886V21.6222H19.3864L15.304 24.2301V21.3324L19.642 18.5455H22.6506Z" fill="#16BDCA"/>
</svg>
